# xmcd
#
# Track frame offsets:
#	150
#	10500
#	17580
#	27029
#	36413
#	44925
#	54188
#	63276
#	73079
#	82847
#	92004
#	102360
#
# Disc length: 1476 seconds
#
# Revision: 1
# Processed by: cddbd v1.5.2PL0 Copyright (c) Steve Scherf et al.
# Submitted via: audiograbber 1.83.01
#
DISCID=8e05c20c
DTITLE=ZÉ PIATÃ - FORRÓ SEM BRIGA
DYEAR=1900
DGENRE=FORRÓ
TTITLE0=FORRÓ NA FAZENDINHA
TTITLE1=FORRÓ DO ZÉ DO FOLE
TTITLE2=ARRASTA-PÉ NO BREJO
TTITLE3=ALEGRIA DO SERTÃO
TTITLE4=CAVALO MANCO
TTITLE5=FORRÓ ALEGRE
TTITLE6=O SANFONEIRO SÓ TOCAVA ISSO
TTITLE7=NÃO PISE NO MEU CALO
TTITLE8=FORRÓ EM GOIÂNIA
TTITLE9=DANÇANDO MAZURCA
TTITLE10=FORRÓ SM BRIGA
TTITLE11=FIM DE FESTA
EXTD=
EXTT0=
EXTT1=
EXTT2=
EXTT3=
EXTT4=
EXTT5=
EXTT6=
EXTT7=
EXTT8=
EXTT9=
EXTT10=
EXTT11=
PLAYORDER=
